<?xml version="1.0" encoding="UTF-8" standalone="no"?>
<!DOCTYPE svg PUBLIC "-//W3C//DTD SVG 1.1//EN"
 "http://www.w3.org/Graphics/SVG/1.1/DTD/svg11.dtd">
<!-- Generated by graphviz version 2.38.0 (20140413.2041)
 -->
<!-- Title: classification Pages: 1 -->
<svg width="529pt" height="233pt"
 viewBox="0.00 0.00 528.89 233.00" xmlns="http://www.w3.org/2000/svg" xmlns:xlink="http://www.w3.org/1999/xlink">
<g id="graph0" class="graph" transform="scale(1 1) rotate(0) translate(4 229)">
<title>classification</title>
<polygon fill="white" stroke="none" points="-4,4 -4,-229 524.886,-229 524.886,4 -4,4"/>
<!-- root -->
<g id="node1" class="node"><title>root</title>
<ellipse fill="none" stroke="black" cx="27" cy="-72" rx="27" ry="18"/>
<text text-anchor="middle" x="27" y="-68.9" font-family="Noto serif CJK SC" font-size="12.00">谱线</text>
</g>
<!-- K -->
<g id="node2" class="node"><title>K</title>
<ellipse fill="none" stroke="black" cx="175" cy="-126" rx="27" ry="18"/>
<text text-anchor="middle" x="175" y="-122.9" font-family="Noto serif CJK SC" font-size="12.00">K系</text>
</g>
<!-- root&#45;&gt;K -->
<g id="edge1" class="edge"><title>root&#45;&gt;K</title>
<path fill="none" stroke="black" d="M50.8026,-80.9133C57.6106,-83.5466 65.0979,-86.4151 72,-89 95.0895,-97.6472 121.232,-107.124 141.27,-114.322"/>
<polygon fill="black" stroke="black" points="140.265,-117.68 150.859,-117.76 142.627,-111.09 140.265,-117.68"/>
<text text-anchor="middle" x="101" y="-114.4" font-family="Noto serif CJK SC" font-size="12.00">跃迁到K层</text>
</g>
<!-- L系 -->
<g id="node5" class="node"><title>L系</title>
<ellipse fill="none" stroke="black" cx="175" cy="-72" rx="27" ry="18"/>
<text text-anchor="middle" x="175" y="-68.9" font-family="Noto serif CJK SC" font-size="12.00">L系</text>
</g>
<!-- root&#45;&gt;L系 -->
<g id="edge4" class="edge"><title>root&#45;&gt;L系</title>
<path fill="none" stroke="black" d="M54.1019,-72C77.3145,-72 111.498,-72 137.432,-72"/>
<polygon fill="black" stroke="black" points="137.632,-75.5001 147.632,-72 137.632,-68.5001 137.632,-75.5001"/>
<text text-anchor="middle" x="101" y="-75.4" font-family="Noto serif CJK SC" font-size="12.00">跃迁到L层</text>
</g>
<!--  &#160;··· &#160; -->
<g id="node6" class="node"><title> &#160;··· &#160;</title>
<ellipse fill="none" stroke="black" cx="175" cy="-18" rx="27" ry="18"/>
<text text-anchor="middle" x="175" y="-14.9" font-family="Noto serif CJK SC" font-size="12.00"> &#160;··· &#160;</text>
</g>
<!-- root&#45;&gt; &#160;··· &#160; -->
<g id="edge5" class="edge"><title>root&#45;&gt; &#160;··· &#160;</title>
<path fill="none" stroke="black" d="M51.1341,-63.4435C75.4822,-54.4381 114.007,-40.1891 141.423,-30.049"/>
<polygon fill="black" stroke="black" points="142.809,-33.2681 150.974,-26.5164 140.381,-26.7028 142.809,-33.2681"/>
</g>
<!-- Kalpha -->
<g id="node3" class="node"><title>Kalpha</title>
<ellipse fill="none" stroke="black" cx="319.011" cy="-180" rx="32.0211" ry="18"/>
<text text-anchor="middle" x="319.011" y="-176.9" font-family="Noto serif CJK SC" font-size="12.00">K_α峰</text>
</g>
<!-- K&#45;&gt;Kalpha -->
<g id="edge2" class="edge"><title>K&#45;&gt;Kalpha</title>
<path fill="none" stroke="black" d="M198.824,-134.857C205.633,-137.489 213.115,-140.37 220,-143 240.595,-150.866 263.661,-159.578 282.24,-166.572"/>
<polygon fill="black" stroke="black" points="281.19,-169.916 291.782,-170.161 283.655,-163.365 281.19,-169.916"/>
<text text-anchor="middle" x="244.5" y="-164.4" font-family="Noto serif CJK SC" font-size="12.00">来自L层</text>
</g>
<!-- K_β峰 -->
<g id="node7" class="node"><title>K_β峰</title>
<ellipse fill="none" stroke="black" cx="319.011" cy="-126" rx="32.0211" ry="18"/>
<text text-anchor="middle" x="319.011" y="-122.9" font-family="Noto serif CJK SC" font-size="12.00">K_β峰</text>
</g>
<!-- K&#45;&gt;K_β峰 -->
<g id="edge6" class="edge"><title>K&#45;&gt;K_β峰</title>
<path fill="none" stroke="black" d="M202.047,-126C222.902,-126 252.548,-126 276.645,-126"/>
<polygon fill="black" stroke="black" points="276.931,-129.5 286.931,-126 276.931,-122.5 276.931,-129.5"/>
<text text-anchor="middle" x="244.5" y="-129.4" font-family="Noto serif CJK SC" font-size="12.00">来自M层</text>
</g>
<!--  ···  -->
<g id="node8" class="node"><title> ··· </title>
<ellipse fill="none" stroke="black" cx="319.011" cy="-72" rx="27" ry="18"/>
<text text-anchor="middle" x="319.011" y="-68.9" font-family="Noto serif CJK SC" font-size="12.00"> ··· </text>
</g>
<!-- K&#45;&gt; ···  -->
<g id="edge7" class="edge"><title>K&#45;&gt; ··· </title>
<path fill="none" stroke="black" d="M198.816,-117.324C222.315,-108.389 259.146,-94.3834 285.648,-84.3058"/>
<polygon fill="black" stroke="black" points="287.148,-87.4803 295.251,-80.6545 284.66,-80.9373 287.148,-87.4803"/>
</g>
<!-- Kalpha1 -->
<g id="node4" class="node"><title>Kalpha1</title>
<ellipse fill="none" stroke="black" cx="491.954" cy="-207" rx="28.8653" ry="18"/>
<text text-anchor="middle" x="491.954" y="-203.9" font-family="Noto serif CJK SC" font-size="12.00">K_α1</text>
</g>
<!-- Kalpha&#45;&gt;Kalpha1 -->
<g id="edge3" class="edge"><title>Kalpha&#45;&gt;Kalpha1</title>
<path fill="none" stroke="black" d="M350.178,-184.765C379.026,-189.321 422.605,-196.204 453.626,-201.104"/>
<polygon fill="black" stroke="black" points="453.202,-204.581 463.626,-202.684 454.294,-197.666 453.202,-204.581"/>
<text text-anchor="middle" x="407.021" y="-202.4" font-family="Noto serif CJK SC" font-size="12.00">来自L_III亚层</text>
</g>
<!-- K_α2 -->
<g id="node9" class="node"><title>K_α2</title>
<ellipse fill="none" stroke="black" cx="491.954" cy="-153" rx="28.8653" ry="18"/>
<text text-anchor="middle" x="491.954" y="-149.9" font-family="Noto serif CJK SC" font-size="12.00">K_α2</text>
</g>
<!-- Kalpha&#45;&gt;K_α2 -->
<g id="edge8" class="edge"><title>Kalpha&#45;&gt;K_α2</title>
<path fill="none" stroke="black" d="M349.239,-173.724C355.737,-172.416 362.602,-171.101 369.021,-170 397.097,-165.183 428.988,-160.774 453.112,-157.654"/>
<polygon fill="black" stroke="black" points="453.798,-161.095 463.274,-156.356 452.911,-154.151 453.798,-161.095"/>
<text text-anchor="middle" x="407.021" y="-173.4" font-family="Noto serif CJK SC" font-size="12.00">来自L_II亚层</text>
</g>
</g>
</svg>
